<svg width="36" height="36" viewBox="0 0 36 36" fill="none" xmlns="http://www.w3.org/2000/svg">
<circle cx="19.4402" cy="13.6387" r="5.63868" fill="#FFD735"/>
<path d="M16.5358 10.4377C16.5358 10.4377 14.6072 8.54481 11.7143 9.72179C10.5297 10.2038 9.78578 12.3305 9.78578 12.3305C9.78578 12.3305 6.40268 11.9011 5.4465 14.2233C4.49031 16.5456 5.89384 18.5584 6.67087 18.4784C10.5207 18.1617 13.1436 17.3053 17.2141 17.3876C22.3021 17.4905 22.23 13.3155 20.3929 11.3841C19.3334 10.2701 16.5358 10.4377 16.5358 10.4377Z" fill="#D9D9D9"/>
<path d="M12.1329 12.8207C17.3213 10.1173 22.0956 13.8607 22.3503 14.8307C23.0429 14.3514 24.7432 14.1734 26.2832 14.8307C27.8233 15.488 28.0337 17.1586 27.9115 18.2198C27.9115 18.2198 30.906 19.2468 30.9977 21.7801C31.071 23.8067 29.4038 27.6352 24.0845 25.7298C22.6515 25.7911 22.9705 27 18.3168 27C12.781 27 12.8875 25.7298 11.3806 25.7298C4.44094 25.7298 3.58713 22.136 4.13714 20.0135C4.57715 18.3156 8.32961 16.3258 9.30357 17.0626C9.4258 15.8987 9.81998 14.0258 12.1329 12.8207Z" fill="#AEAEAE"/>
</svg>
