<svg width="36" height="36" viewBox="0 0 36 36" fill="none" xmlns="http://www.w3.org/2000/svg">
<path d="M12.1329 7.96435C17.3213 5.2583 22.0956 9.00546 22.3503 9.97638C23.0429 9.49663 24.7432 9.31844 26.2832 9.97638C27.8233 10.6343 28.0337 12.3066 27.9115 13.3689C27.9115 13.3689 30.906 14.3969 30.9977 16.9327C31.071 18.9614 29.4038 22.7937 24.0845 20.8864C22.6515 20.9478 22.9705 22.1579 18.3168 22.1579C12.781 22.1579 12.8875 20.8864 11.3806 20.8864C4.44094 20.8864 3.58713 17.289 4.13714 15.1644C4.57715 13.4647 8.32961 11.4729 9.30357 12.2105C9.4258 11.0454 9.81998 9.17063 12.1329 7.96435Z" fill="#AEAEAE"/>
<path d="M11.1875 25.1567C12.5251 25.2249 11.8081 22.1578 11.8081 22.1578C11.8081 22.1578 9.1869 24.1517 10.2565 24.8568C10.5671 25.0616 10.8014 25.137 11.1875 25.1567Z" fill="#4DBFD9"/>
<path d="M16.7812 28.156C18.7876 28.2696 17.7121 23.1578 17.7121 23.1578C17.7121 23.1578 13.7803 26.481 15.3848 27.6562C15.8507 27.9974 16.2021 28.1232 16.7812 28.156Z" fill="#4DBFD9"/>
</svg>
