<svg width="24" height="24" viewBox="0 0 24 24" fill="none" xmlns="http://www.w3.org/2000/svg">
<g clip-path="url(#clip0_65_835)">
<rect x="2.5" y="6.5" width="19" height="17" fill="#F0EEEE" stroke="#F0EEEE"/>
<rect y="3" width="24" height="5" fill="#AEAEAE"/>
<path d="M4.5 4V1.5C4.5 0.947715 4.94772 0.5 5.5 0.5V0.5C6.05228 0.5 6.5 0.947715 6.5 1.5V4" stroke="#AEAEAE" stroke-linecap="round" stroke-linejoin="round"/>
<path d="M19.5 4V1.5C19.5 0.947715 19.0523 0.5 18.5 0.5V0.5C17.9477 0.5 17.5 0.947715 17.5 1.5V4" stroke="#AEAEAE" stroke-linecap="round" stroke-linejoin="round"/>
<path d="M8.90163 19.0994C8.43288 19.0994 8.01503 19.0189 7.64808 18.858C7.2835 18.697 6.99349 18.4732 6.77805 18.1868C6.56499 17.898 6.44898 17.563 6.43004 17.1818H7.32493C7.34387 17.4162 7.42436 17.6186 7.56641 17.7891C7.70845 17.9571 7.89429 18.0874 8.12393 18.1797C8.35357 18.272 8.60807 18.3182 8.88743 18.3182C9.19993 18.3182 9.47692 18.2637 9.71839 18.1548C9.95987 18.0459 10.1493 17.8944 10.2866 17.7003C10.4239 17.5062 10.4925 17.2812 10.4925 17.0256C10.4925 16.758 10.4263 16.5225 10.2937 16.3189C10.1611 16.1129 9.96697 15.9519 9.71129 15.8359C9.45561 15.7199 9.14311 15.6619 8.77379 15.6619H8.19141V14.8807H8.77379C9.06262 14.8807 9.31593 14.8286 9.53374 14.7244C9.75391 14.6203 9.92554 14.4735 10.0487 14.2841C10.1741 14.0947 10.2369 13.8722 10.2369 13.6165C10.2369 13.3703 10.1824 13.156 10.0735 12.9737C9.96461 12.7914 9.81072 12.6494 9.61186 12.5476C9.41536 12.4458 9.18336 12.3949 8.91584 12.3949C8.66489 12.3949 8.42815 12.4411 8.20561 12.5334C7.98544 12.6233 7.80552 12.7547 7.66584 12.9276C7.52616 13.098 7.4504 13.304 7.43857 13.5455H6.58629C6.6005 13.1643 6.71532 12.8305 6.93075 12.544C7.14619 12.2552 7.42791 12.0303 7.77592 11.8693C8.1263 11.7083 8.51101 11.6278 8.93004 11.6278C9.37985 11.6278 9.76574 11.719 10.0877 11.9013C10.4097 12.0812 10.6571 12.3191 10.8299 12.6151C11.0027 12.911 11.0891 13.2306 11.0891 13.5739C11.0891 13.9834 10.9814 14.3326 10.766 14.6214C10.5529 14.9103 10.2629 15.1103 9.89595 15.2216V15.2784C10.3552 15.3542 10.7139 15.5495 10.9719 15.8643C11.23 16.1768 11.359 16.5639 11.359 17.0256C11.359 17.4209 11.2513 17.776 11.0359 18.0909C10.8228 18.4034 10.5316 18.6496 10.1623 18.8295C9.79297 19.0095 9.37275 19.0994 8.90163 19.0994ZM15.1836 19.0994C14.6486 19.0994 14.1928 18.9538 13.8164 18.6626C13.44 18.3691 13.1523 17.9441 12.9535 17.3878C12.7546 16.8291 12.6552 16.1544 12.6552 15.3636C12.6552 14.5777 12.7546 13.9065 12.9535 13.3501C13.1547 12.7914 13.4435 12.3653 13.82 12.0717C14.1987 11.7758 14.6533 11.6278 15.1836 11.6278C15.7139 11.6278 16.1673 11.7758 16.5437 12.0717C16.9225 12.3653 17.2113 12.7914 17.4102 13.3501C17.6114 13.9065 17.712 14.5777 17.712 15.3636C17.712 16.1544 17.6126 16.8291 17.4137 17.3878C17.2148 17.9441 16.9272 18.3691 16.5508 18.6626C16.1744 18.9538 15.7186 19.0994 15.1836 19.0994ZM15.1836 18.3182C15.7139 18.3182 16.1258 18.0625 16.4194 17.5511C16.7129 17.0398 16.8597 16.3106 16.8597 15.3636C16.8597 14.7339 16.7923 14.1977 16.6573 13.755C16.5247 13.3123 16.333 12.9749 16.082 12.7429C15.8335 12.5109 15.534 12.3949 15.1836 12.3949C14.658 12.3949 14.2473 12.6541 13.9513 13.1726C13.6554 13.6887 13.5075 14.419 13.5075 15.3636C13.5075 15.9934 13.5737 16.5284 13.7063 16.9688C13.8389 17.4091 14.0295 17.7441 14.2781 17.9737C14.529 18.2034 14.8308 18.3182 15.1836 18.3182Z" fill="#14314B"/>
</g>
<defs>
<clipPath id="clip0_65_835">
<rect width="24" height="24" fill="white"/>
</clipPath>
</defs>
</svg>
