<svg width="20" height="20" viewBox="0 0 20 20" fill="none" xmlns="http://www.w3.org/2000/svg">
<path d="M1 7.81821H7.52289C7.52289 7.81821 8.70805 7.81119 9.26232 7.38208C9.86351 6.91666 10.069 6.39664 10.132 5.63758C10.208 4.72356 9.99043 4.01193 9.26232 3.45696C8.70485 3.03205 8.21997 2.9547 7.52289 3.02083C6.76679 3.09256 6.24753 3.29014 5.78345 3.89308C5.35559 4.44897 5.34859 5.63758 5.34859 5.63758" stroke="#F0EEEE" stroke-linecap="round"/>
<path d="M1 12.1795C1 12.1795 14.11 11.9102 14.9155 12.1795C16.0547 12.5603 16.5462 13.1607 16.6549 14.3601C16.775 15.6849 15.7982 16.8242 14.4806 16.9769C13.5722 17.0821 12.8597 16.8348 12.3063 16.1046C11.8827 15.5455 11.8715 14.3601 11.8715 14.3601M1 9.99885H14.0458C14.0458 9.99885 15.8068 10.1541 16.6549 9.56272C17.468 8.99582 17.8257 8.3661 17.9595 7.3821C18.1343 6.09689 17.7515 5.01703 16.6549 4.32922C16.0613 3.95685 15.6148 3.8569 14.9155 3.8931C13.6925 3.9564 12.903 4.56508 12.3063 5.6376C11.9652 6.25083 11.8715 7.3821 11.8715 7.3821" stroke="#F0EEEE" stroke-linecap="round"/>
</svg>
