<svg width="30" height="30" viewBox="0 0 30 30" fill="none" xmlns="http://www.w3.org/2000/svg">
<g clip-path="url(#clip0_78_188)">
<path fill-rule="evenodd" clip-rule="evenodd" d="M21.0945 25.1144C15.3389 25.0042 10.1116 21.1249 8.54704 15.286C6.98251 9.44704 9.56979 3.47377 14.4992 0.500574C13.2824 0.477292 12.0419 0.622483 10.8075 0.953254C3.73411 2.84856 -0.46355 10.1191 1.43176 17.1925C3.32706 24.2659 10.5976 28.4635 17.671 26.5682C18.9055 26.2375 20.0523 25.743 21.0945 25.1144Z" fill="#FFD735"/>
<path d="M22.8892 10.303C22.8892 10.303 20.681 6.76923 15.9624 7.5602C14.03 7.88412 12.178 10.8542 12.178 10.8542C12.178 10.8542 7.29203 9.04018 5.05541 12.2338C2.82565 15.4177 3.94047 17.0234 5.37486 19.0895L5.38809 19.1085C9.24963 24.6707 15.4346 19.5538 21.4653 21.0776C29.0036 22.9823 30.3583 16.625 28.2998 13.0642C27.1125 11.0105 22.8892 10.303 22.8892 10.303Z" fill="#D9D9D9"/>
</g>
<defs>
<clipPath id="clip0_78_188">
<rect width="30" height="30" fill="white"/>
</clipPath>
</defs>
</svg>
