<svg width="36" height="36" viewBox="0 0 36 36" fill="none" xmlns="http://www.w3.org/2000/svg">
<path d="M17.7033 10.1411C17.7033 10.1411 15.5503 8.18014 12.3208 9.39949C10.9983 9.89884 10.1679 12.1021 10.1679 12.1021C10.1679 12.1021 6.39113 11.6573 5.32368 14.0631C4.25624 16.4689 5.82308 18.5542 6.69052 18.4713C10.9883 18.1432 13.9164 17.256 18.4605 17.3413C24.1405 17.4478 24.0601 13.1225 22.0092 11.1216C20.8264 9.96758 17.7033 10.1411 17.7033 10.1411Z" fill="#D9D9D9"/>
<path d="M12.1329 12.8064C17.3213 10.1004 22.0956 13.8476 22.3503 14.8185C23.0429 14.3387 24.7432 14.1605 26.2832 14.8185C27.8233 15.4764 28.0337 17.1487 27.9115 18.211C27.9115 18.211 30.906 19.239 30.9977 21.7748C31.071 23.8035 29.4038 27.6358 24.0845 25.7285C22.6515 25.7899 22.9705 27 18.3168 27C12.781 27 12.8875 25.7285 11.3806 25.7285C4.44094 25.7285 3.58713 22.1311 4.13714 20.0065C4.57715 18.3068 8.32961 16.315 9.30357 17.0526C9.4258 15.8875 9.81998 14.0127 12.1329 12.8064Z" fill="#AEAEAE"/>
</svg>
