<svg width="36" height="36" viewBox="0 0 36 36" fill="none" xmlns="http://www.w3.org/2000/svg">
<path d="M20.7033 8.14112C20.7033 8.14112 18.5503 6.18014 15.3208 7.39949C13.9983 7.89884 13.1679 10.1021 13.1679 10.1021C13.1679 10.1021 9.39113 9.65727 8.32368 12.0631C7.25624 14.4689 8.82308 16.5542 9.69052 16.4713C13.9883 16.1432 16.9164 15.256 21.4605 15.3413C27.1405 15.4478 27.0601 11.1225 25.0092 9.12161C23.8264 7.96758 20.7033 8.14112 20.7033 8.14112Z" fill="#D9D9D9"/>
<path d="M15.1329 10.8064C20.3213 8.1004 25.0956 11.8476 25.3503 12.8185C26.0429 12.3387 27.7432 12.1605 29.2832 12.8185C30.8233 13.4764 31.0337 15.1487 30.9115 16.211C30.9115 16.211 33.906 17.239 33.9977 19.7748C34.071 21.8035 32.4038 25.6358 27.0845 23.7285C25.6515 23.7899 25.9705 25 21.3168 25C15.781 25 15.8875 23.7285 14.3806 23.7285C7.44094 23.7285 6.58713 20.1311 7.13714 18.0065C7.57715 16.3068 11.3296 14.315 12.3036 15.0526C12.4258 13.8875 12.82 12.0127 15.1329 10.8064Z" fill="#AEAEAE"/>
<path d="M14.1875 27.9989C15.5251 28.0671 14.8081 25 14.8081 25C14.8081 25 12.1869 26.9939 13.2565 27.699C13.5671 27.9037 13.8014 27.9792 14.1875 27.9989Z" fill="#4DBFD9"/>
<path d="M25.1875 28.9989C26.5251 29.0671 25.8081 26 25.8081 26C25.8081 26 23.1869 27.9939 24.2565 28.699C24.5671 28.9037 24.8014 28.9792 25.1875 28.9989Z" fill="#4DBFD9"/>
<path d="M19.7812 30.9981C21.7876 31.1118 20.7121 26 20.7121 26C20.7121 26 16.7803 29.3231 18.3848 30.4983C18.8507 30.8396 19.2021 30.9653 19.7812 30.9981Z" fill="#4DBFD9"/>
</svg>
